{
  "accessors": [
    {
      "bufferView": 3,
      "componentType": 5126,
      "count": 719,
      "max": [
        0.08471864461898804,
        0.204568013548851,
        0.05289069935679436
      ],
      "min": [
        -0.08471863716840744,
        -5.116873580846004e-05,
        -0.052858516573905945
      ],
      "type": "VEC3"
    },
    {
      "bufferView": 3,
      "byteOffset": 8628,
      "componentType": 5126,
      "count": 719,
      "max": [
        0.9867289066314697,
        0.9999960660934448,
        0.9998894929885864
      ],
      "min": [
        -0.9955169558525085,
        -0.9999955296516418,
        -0.9995647668838501
      ],
      "type": "VEC3"
    },
    {
      "bufferView": 2,
      "componentType": 5126,
      "count": 719,
      "max": [
        0.960276186466217,
        0.9959230422973633
      ],
      "min": [
        0.053250063210725784,
        0.025778457522392273
      ],
      "type": "VEC2"
    },
    {
      "bufferView": 1,
      "componentType": 5125,
      "count": 2340,
      "type": "SCALAR"
    },
    {
      "bufferView": 5,
      "componentType": 5126,
      "count": 22,
      "max": [
        24.602022171020508,
        19.80096435546875,
        0.0010419223690405488,
        0.0,
        19.80096435546875,
        24.602022171020508,
        24.59841537475586,
        0.0,
        3.119901884929277e-05,
        24.59841537475586,
        24.60202407836914,
        0.0,
        2.3834967613220215,
        1.4756877422332764,
        0.31231850385665894,
        1.0
      ],
      "min": [
        -24.602022171020508,
        -19.80096435546875,
        -0.0010419223690405488,
        0.0,
        -19.80096435546875,
        -24.602022171020508,
        -3.673592800623737e-05,
        0.0,
        -3.95458446291741e-05,
        -1.3343238606466912e-05,
        -0.4209820330142975,
        0.0,
        -2.3834965229034424,
        -3.297510862350464,
        -0.20652072131633759,
        1.0
      ],
      "type": "MAT4"
    },
    {
      "bufferView": 0,
      "componentType": 5123,
      "count": 719,
      "type": "VEC4"
    },
    {
      "bufferView": 4,
      "componentType": 5126,
      "count": 719,
      "max": [
        1.0,
        0.49992701411247253,
        0.0,
        0.0
      ],
      "min": [
        0.5000730156898499,
        0.0,
        0.0,
        0.0
      ],
      "type": "VEC4"
    }
  ],
  "asset": {
    "extras": {
      "author": "sbrear (https://sketchfab.com/sbrear)",
      "license": "CC-BY-4.0 (http://creativecommons.org/licenses/by/4.0/)",
      "source": "https://sketchfab.com/3d-models/a-mario-64-model-20ea1e57597241cbb8a5b0d744bd8a71",
      "title": "a Mario 64 model"
    },
    "generator": "Sketchfab-16.12.0",
    "version": "2.0"
  },
  "bufferViews": [
    {
      "buffer": 0,
      "byteLength": 5752,
      "byteStride": 8,
      "name": "shortBufferViews",
      "target": 34962
    },
    {
      "buffer": 0,
      "byteLength": 9360,
      "byteOffset": 5752,
      "name": "floatBufferViews",
      "target": 34963
    },
    {
      "buffer": 0,
      "byteLength": 5752,
      "byteOffset": 15112,
      "byteStride": 8,
      "name": "floatBufferViews",
      "target": 34962
    },
    {
      "buffer": 0,
      "byteLength": 17256,
      "byteOffset": 20864,
      "byteStride": 12,
      "name": "floatBufferViews",
      "target": 34962
    },
    {
      "buffer": 0,
      "byteLength": 11504,
      "byteOffset": 38120,
      "byteStride": 16,
      "name": "floatBufferViews",
      "target": 34962
    },
    {
      "buffer": 0,
      "byteLength": 1408,
      "byteOffset": 49624,
      "name": "floatBufferViews"
    }
  ],
  "buffers": [
    {
      "byteLength": 51032,
      "uri": "scene.bin"
    }
  ],
  "images": [
    {
      "uri": "textures/Material.001_baseColor.jpeg"
    }
  ],
  "materials": [
    {
      "doubleSided": true,
      "name": "Material.001",
      "pbrMetallicRoughness": {
        "baseColorTexture": {
          "index": 0
        },
        "metallicFactor": 0.0
      }
    }
  ],
  "meshes": [
    {
      "name": "Object_0",
      "primitives": [
        {
          "attributes": {
            "JOINTS_0": 5,
            "NORMAL": 1,
            "POSITION": 0,
            "TEXCOORD_0": 2,
            "WEIGHTS_0": 6
          },
          "indices": 3,
          "material": 0,
          "mode": 4
        }
      ]
    }
  ],
  "nodes": [
    {
      "children": [
        1
      ],
      "matrix": [
        1.0,
        0.0,
        0.0,
        0.0,
        0.0,
        2.220446049250313e-16,
        -1.0,
        0.0,
        0.0,
        1.0,
        2.220446049250313e-16,
        0.0,
        0.0,
        0.0,
        0.0,
        1.0
      ],
      "name": "Sketchfab_model"
    },
    {
      "children": [
        2
      ],
      "name": "root"
    },
    {
      "children": [
        3
      ],
      "matrix": [
        1.0,
        0.0,
        0.0,
        0.0,
        0.0,
        2.220446049250313e-16,
        1.0,
        0.0,
        0.0,
        -1.0,
        2.220446049250313e-16,
        0.0,
        0.0,
        0.0,
        0.0,
        1.0
      ],
      "name": "GLTF_SceneRootNode"
    },
    {
      "children": [
        4
      ],
      "matrix": [
        0.04064706712961197,
        0.0,
        0.0,
        0.0,
        0.0,
        0.04064706712961197,
        0.0,
        0.0,
        0.0,
        0.0,
        0.04064706712961197,
        0.0,
        0.0,
        0.05430682748556137,
        0.0,
        1.0
      ],
      "name": "Armature_22"
    },
    {
      "children": [
        5,
        7,
        6
      ],
      "name": "GLTF_created_0"
    },
    {
      "children": [
        8
      ],
      "name": "GLTF_created_0_rootJoint"
    },
    {
      "name": "Mario_21"
    },
    {
      "mesh": 0,
      "name": "Object_7",
      "skin": 0
    },
    {
      "children": [
        9,
        21,
        25
      ],
      "name": "Spine1_20",
      "rotation": [
        2.2890505135819694e-07,
        3.3320020520477556e-08,
        9.155081918531694e-15,
        1.0
      ],
      "translation": [
        -1.7447904625549245e-15,
        0.14216217398643494,
        -0.3061954379081726
      ]
    },
    {
      "children": [
        10,
        13,
        17
      ],
      "name": "Spine2_11",
      "rotation": [
        -4.403602815727936e-09,
        6.884517609528012e-22,
        6.155729887853862e-16,
        1.0
      ],
      "translation": [
        -2.4753905522589825e-11,
        0.6013082265853882,
        -1.718919406812347e-08
      ]
    },
    {
      "children": [
        11
      ],
      "name": "Spine3_2",
      "rotation": [
        7.29767748453014e-08,
        -1.650965799626647e-07,
        0.006794271990656853,
        0.9999769330024719
      ],
      "scale": [
        1.0,
        0.9999999403953552,
        1.0
      ],
      "translation": [
        2.0707293657551418e-09,
        0.379706472158432,
        1.291011244575202e-07
      ]
    },
    {
      "children": [
        12
      ],
      "name": "Head_1",
      "rotation": [
        -1.7785187367280741e-07,
        2.5271828008044395e-07,
        -0.006794277112931013,
        0.9999769330024719
      ],
      "scale": [
        0.9999998807907104,
        0.9999998807907104,
        1.0
      ],
      "translation": [
        1.3356711292544787e-09,
        0.41915759444236755,
        -7.544291413807969e-09
      ]
    },
    {
      "name": "Head_end_0",
      "rotation": [
        1.0665082328387143e-07,
        2.777341912008069e-09,
        2.900455653431777e-09,
        1.0
      ],
      "translation": [
        4.46080672400484e-10,
        0.4191575348377228,
        3.683549820721055e-08
      ]
    },
    {
      "children": [
        14
      ],
      "name": "UpperArm.L_6",
      "rotation": [
        1.2832695972520014e-07,
        8.627641534530994e-08,
        -0.8926020264625549,
        0.4508454203605652
      ],
      "scale": [
        0.9999999403953552,
        1.0,
        1.0
      ],
      "translation": [
        0.4724365770816803,
        0.5335230231285095,
        5.4590859832615024e-08
      ]
    },
    {
      "children": [
        15
      ],
      "name": "LowerArm.L_5",
      "rotation": [
        1.1599151150676335e-07,
        2.564827639162104e-07,
        -0.1271071583032608,
        0.9918889999389648
      ],
      "scale": [
        1.0,
        1.0000004768371582,
        1.0000001192092896
      ],
      "translation": [
        -9.321522753680256e-08,
        0.5405732989311218,
        2.6097300320770955e-08
      ]
    },
    {
      "children": [
        16
      ],
      "name": "Arm.L_4",
      "rotation": [
        -1.8428583814511512e-07,
        3.0555474950233474e-07,
        0.04170730337500572,
        0.9991298913955688
      ],
      "scale": [
        1.0000004768371582,
        1.000000238418579,
        1.0000001192092896
      ],
      "translation": [
        6.136745867024729e-08,
        0.47495925426483154,
        6.600099577980245e-09
      ]
    },
    {
      "name": "Arm.L_end_3",
      "rotation": [
        6.274768793446128e-08,
        -6.191720558490488e-07,
        -5.662442390530487e-07,
        1.0
      ],
      "translation": [
        -1.1405403199660213e-07,
        0.47495949268341064,
        3.542427018388139e-09
      ]
    },
    {
      "children": [
        18
      ],
      "name": "UpperArm.R_10",
      "rotation": [
        3.435774331705943e-08,
        -1.606665733788759e-07,
        0.8926020264625549,
        0.4508453905582428
      ],
      "translation": [
        -0.47243645787239075,
        0.5335230231285095,
        -3.8177837780040136e-08
      ]
    },
    {
      "children": [
        19
      ],
      "name": "LowerArm.R_9",
      "rotation": [
        -4.81570161525724e-09,
        -1.495747596891306e-07,
        0.12710696458816528,
        0.9918889999389648
      ],
      "scale": [
        1.0,
        1.0,
        1.000000238418579
      ],
      "translation": [
        7.412865699052418e-08,
        0.5405728220939636,
        1.2688284201090028e-08
      ]
    },
    {
      "children": [
        20
      ],
      "name": "Arm.R_8",
      "rotation": [
        1.7367645455124148e-07,
        -2.8298546794758295e-07,
        -0.04170707240700722,
        0.9991298913955688
      ],
      "scale": [
        0.999999463558197,
        0.9999999403953552,
        0.9999997615814209
      ],
      "translation": [
        5.975249450784759e-08,
        0.4749595522880554,
        5.713525652595308e-09
      ]
    },
    {
      "name": "Arm.R_end_7",
      "rotation": [
        -1.5686723031649308e-07,
        5.46694877812115e-07,
        5.587936584561248e-07,
        1.0
      ],
      "scale": [
        1.0000001192092896,
        1.0000001192092896,
        1.0
      ],
      "translation": [
        1.8813592816968594e-07,
        0.4749595820903778,
        1.4038794127202436e-08
      ]
    },
    {
      "children": [
        22
      ],
      "name": "UpperLeg.L_15",
      "rotation": [
        -1.0881793599537559e-07,
        -4.756583395524672e-15,
        1.0,
        4.3711402497592644e-08
      ],
      "scale": [
        0.9999998211860657,
        1.0,
        0.9999999403953552
      ],
      "translation": [
        0.4087127149105072,
        -0.0025318979751318693,
        -7.295962944908752e-08
      ]
    },
    {
      "children": [
        23
      ],
      "name": "LowerLeg.L_14",
      "rotation": [
        0.002735103014856577,
        -2.70204139951602e-07,
        -3.260396674864552e-10,
        0.9999962449073792
      ],
      "scale": [
        0.9999998807907104,
        0.9999999403953552,
        1.0000001192092896
      ],
      "translation": [
        -4.1536146966336673e-08,
        0.6144340634346008,
        -0.010838568210601807
      ]
    },
    {
      "children": [
        24
      ],
      "name": "Foot.L_13",
      "rotation": [
        0.7112111449241638,
        -1.475204226153437e-05,
        -1.5195828382275067e-05,
        0.7029784917831421
      ],
      "scale": [
        1.0,
        0.9999999403953552,
        1.0
      ],
      "translation": [
        -0.26707902550697327,
        0.663200318813324,
        -0.2658241093158722
      ]
    },
    {
      "name": "Foot.L_end_12",
      "rotation": [
        -9.314107263236338e-10,
        1.6542323066914832e-12,
        -4.165146894052896e-09,
        1.0
      ],
      "translation": [
        3.530715275701368e-08,
        0.9385135769844055,
        2.0063453121110797e-08
      ]
    },
    {
      "children": [
        26
      ],
      "name": "UpperLeg.R_19",
      "rotation": [
        -4.2177880743565765e-08,
        1.8436538188178414e-15,
        -1.0,
        4.371138828673793e-08
      ],
      "scale": [
        1.0,
        0.9999998807907104,
        1.0
      ],
      "translation": [
        -0.4087127149105072,
        -0.0025318979751318693,
        -1.2743289801164792e-07
      ]
    },
    {
      "children": [
        27
      ],
      "name": "LowerLeg.R_18",
      "rotation": [
        0.0027351032476872206,
        2.70204139951602e-07,
        3.2604727251417387e-10,
        0.9999962449073792
      ],
      "scale": [
        1.0,
        0.9999999403953552,
        1.000000238418579
      ],
      "translation": [
        4.1536139860909316e-08,
        0.6144340634346008,
        -0.010838568210601807
      ]
    },
    {
      "children": [
        28
      ],
      "name": "Foot.R_17",
      "rotation": [
        0.7112111449241638,
        1.475204226153437e-05,
        1.5195831110759173e-05,
        0.7029784917831421
      ],
      "scale": [
        0.9999999403953552,
        0.9999999403953552,
        1.0000001192092896
      ],
      "translation": [
        0.2670791447162628,
        0.663200318813324,
        -0.26582422852516174
      ]
    },
    {
      "name": "Foot.R_end_16",
      "rotation": [
        -4.657494945270457e-10,
        -2.5637270084644115e-12,
        4.165175315762326e-09,
        1.0
      ],
      "translation": [
        -9.491179753240431e-08,
        0.9385135769844055,
        1.3927819964010268e-07
      ]
    }
  ],
  "samplers": [
    {
      "magFilter": 9729,
      "minFilter": 9987,
      "wrapS": 10497,
      "wrapT": 10497
    }
  ],
  "scene": 0,
  "scenes": [
    {
      "name": "Sketchfab_Scene",
      "nodes": [
        0
      ]
    }
  ],
  "skins": [
    {
      "inverseBindMatrices": 4,
      "joints": [
        5,
        8,
        9,
        10,
        11,
        12,
        13,
        14,
        15,
        16,
        17,
        18,
        19,
        20,
        21,
        22,
        23,
        24,
        25,
        26,
        27,
        28
      ],
      "skeleton": 5
    }
  ],
  "textures": [
    {
      "sampler": 0,
      "source": 0
    }
  ]
}
